<?xml version="1.0" encoding="utf-8"?>
<!-- Generator: Adobe Illustrator 25.4.1, SVG Export Plug-In . SVG Version: 6.00 Build 0)  -->
<svg version="1.1" id="Capa_1" xmlns="http://www.w3.org/2000/svg" xmlns:xlink="http://www.w3.org/1999/xlink" x="0px" y="0px"
	 viewBox="0 0 48 48" style="enable-background:new 0 0 48 48;" xml:space="preserve">
<style type="text/css">
	.st0{display:none;}
	.st1{display:inline;fill:#FFFFFF;}
	.st2{fill:#00F9FF;}
	.st3{fill:#FF0606;}
	.st4{fill:#6C55E1;}
</style>
<g class="st0">
	<rect x="-51.4" y="44.6" class="st1" width="9.4" height="4.7"/>
	<path class="st1" d="M-44.4,4.7v19.4c1.4,0.8,2.3,2.3,2.3,4c0,2.4-1.8,4.4-4.1,4.6v0.1h-0.7l0,0c-2.5-0.1-4.6-2.1-4.6-4.7
		c0-1.7,1-3.2,2.3-4V4.7h-2.3l-9.3,28.2l9.4,9.4h9.4l9.4-9.4L-42,4.7H-44.4z"/>
</g>
<g>
	<path d="M-89.3-20.7l-22.5-0.2c-1,0-1.6-0.7-1.6-1.7l0.1-6.1c0-1.6,1.8-3.3,3.4-3.3h4.1c1.6,0,3.3-1.7,3.4-3.3l0.1-5.1
		c0-1-0.6-1.7-1.6-1.7l-18.9-0.2c-1.6,0-3.3,1.7-3.4,3.3l-0.5,26.1c0,1,0.6,1.7,1.6,1.7l28.9,0.3c0.8,0,1.6-0.4,2.3-1l5.1-5
		C-87.1-18.4-87.4-20.7-89.3-20.7z"/>
	<path d="M-77.3-53l0.1-4.6c0-1-0.6-1.7-1.6-1.7l-28.9-0.3c-0.8,0-1.6,0.4-2.3,1l-6.3,6.1c-1.7,1.6-1.4,3.9,0.5,4l16.9,0.2
		c1,0,1.7,0.7,1.6,1.7l-0.3,19.2c0,1,0.6,1.7,1.6,1.7h4.3c1.6,0,3.4-1.7,3.4-3.3l0.1-3.3c0-1.6,1.8-3.3,3.4-3.3h3.8
		c1.6,0,3.4-1.7,3.4-3.3l0.1-4.1c0-1-0.6-1.7-1.6-1.7l-7.3-0.1c-1,0-1.7-0.7-1.6-1.7l0,0c0-1.6,1.8-3.3,3.4-3.3h4
		C-79-49.7-77.3-51.4-77.3-53z"/>
</g>
<rect x="211.1" y="-79.6" width="24" height="24"/>
<rect x="192.2" y="35" width="48" height="48"/>
<g>
	<polygon points="-128.6,66 -128.6,54 -116.6,54 -116.6,45 -128.6,45 -137.6,45 -137.6,54 -137.6,66 -137.6,75 -128.6,75 -95.6,75 
		-95.6,66 	"/>
	<polygon points="-95.6,42 -95.6,33 -137.6,33 -137.6,42 -113.6,42 -113.6,63 -104.6,63 -104.6,54 -95.6,54 -95.6,45 -104.6,45 
		-104.6,42 	"/>
</g>
<rect x="167.6" y="-45.1" class="st2" width="9" height="9"/>
<g>
	<polygon points="-43.3,66.8 -76.3,66.8 -76.3,54.8 -64.3,54.8 -64.3,45.8 -76.3,45.8 -85.3,45.8 -85.3,54.8 -85.3,66.8 -85.3,75.8 
		-76.3,75.8 -52.3,75.8 	"/>
	<polygon points="-43.3,42.8 -43.3,33.8 -76.3,33.8 -85.3,42.8 -61.3,42.8 -61.3,63.8 -52.3,63.8 -52.3,54.8 -43.3,54.8 -43.3,45.8 
		-52.3,45.8 -52.3,42.8 	"/>
</g>
<rect x="163.6" y="-28.9" width="12" height="12"/>
<rect x="163.6" y="-61.8" class="st3" width="6" height="6"/>
<polygon points="-43.3,114.4 -49.3,114.4 -55.3,114.4 -76.3,114.4 -76.3,105.4 -67.3,105.4 -67.3,111.4 -58.3,111.4 -58.3,105.4 
	-49.3,105.4 -43.3,105.4 -43.3,96.4 -49.3,96.4 -58.3,96.4 -58.3,90.4 -49.3,90.4 -43.3,90.4 -43.3,81.4 -49.3,81.4 -79.3,81.4 
	-85.3,81.4 -85.3,90.4 -79.3,90.4 -67.3,90.4 -67.3,96.4 -85.3,96.4 -85.3,123.4 -55.3,123.4 -49.3,123.4 -43.3,123.4 "/>
<g>
	<path d="M-85.5,175.9v38.7c0,1,0.8,1.9,1.9,1.9h38.7c1,0,1.9-0.8,1.9-1.9v-38.7c0-1-0.8-1.9-1.9-1.9h-38.7
		C-84.7,174-85.5,174.8-85.5,175.9z M-80.6,209.7v-28.9c0-1,0.8-1.9,1.9-1.9h28.9c1,0,1.9,0.8,1.9,1.9v28.9c0,1-0.8,1.9-1.9,1.9
		h-28.9C-79.8,211.6-80.6,210.7-80.6,209.7z"/>
	<g>
		<path d="M-75.5,187.8h7.5c1,0,1.9,0.8,1.9,1.9v9.3c0,1,0.8,1.9,1.9,1.9h1.9c1,0,1.9-0.8,1.9-1.9l0,0c0-1,0.8-1.9,1.9-1.9h5.6
			c1,0,1.9-0.8,1.9-1.9v-1.9c0-1-0.8-1.9-1.9-1.9h-5.6c-1,0-1.9-0.8-1.9-1.9l0,0c0-1,0.8-1.9,1.9-1.9h5.6c1,0,1.9-0.8,1.9-1.9V184
			c0-1-0.8-1.9-1.9-1.9h-22.4c-1,0-1.9,0.8-1.9,1.9v1.9C-77.4,186.9-76.5,187.8-75.5,187.8z"/>
		<path d="M-68,195.2v-1.9c0-1-0.8-1.9-1.9-1.9h-5.6c-1,0-1.9,0.8-1.9,1.9v13.1c0,1,0.8,1.9,1.9,1.9h22.4c1,0,1.9-0.8,1.9-1.9v-1.9
			c0-1-0.8-1.9-1.9-1.9h-16.8c-1,0-1.9-0.8-1.9-1.9V199c0-1,0.8-1.9,1.9-1.9l0,0C-68.9,197.1-68,196.3-68,195.2z"/>
	</g>
</g>
<g>
	<path d="M-176.6,88.6v78h78v-78C-98.6,88.6-176.6,88.6-176.6,88.6z M-167.6,157.6v-60h60v60H-167.6z"/>
	<g>
		<polygon points="-161.6,113.8 -141,113.8 -141,137.8 -130.7,137.8 -130.7,131 -113.6,131 -113.6,120.7 -130.7,120.7 -130.7,113.8 
			-113.6,113.8 -113.6,103.6 -161.6,103.6 		"/>
		<polygon points="-144.4,131 -144.4,120.7 -161.6,120.7 -161.6,151.6 -113.6,151.6 -113.6,141.3 -151.3,141.3 -151.3,131 		"/>
	</g>
</g>
<g>
	<polygon points="-85.3,136.6 -67.3,136.6 -67.3,157.8 -58.3,157.8 -58.3,151.7 -43.3,151.7 -43.3,142.7 -58.3,142.7 -58.3,136.6 
		-43.3,136.6 -43.3,127.6 -85.3,127.6 	"/>
	<polygon points="-70.3,151.7 -70.3,142.7 -85.3,142.7 -85.3,169.9 -43.3,169.9 -43.3,160.8 -76.3,160.8 -76.3,151.7 	"/>
</g>
<g>
	<path class="st4" d="M6.9,28l8.1-8c0.5-0.5,1.2-0.5,1.7,0l9.7,9.7c0.5,0.5,1.2,0.5,1.7,0l3.2-3.2c0.5-0.5,0.5-1.2,0-1.7l-1.5-1.5
		c-0.5-0.5-0.5-1.2,0-1.7l6.4-6.4c0.5-0.5,0.5-1.2,0-1.7L33,10.2c-0.5-0.5-1.2-0.5-1.7,0l-6.4,6.4c-0.5,0.5-1.2,0.5-1.7,0l-1.5-1.5
		c-0.5-0.5-0.5-1.2,0-1.7L28,6.9c0.5-0.5,0.5-1.2,0-1.7L24.9,2c-0.5-0.5-1.2-0.5-1.7,0L2,23.1c-0.5,0.5-0.5,1.2,0,1.7L5.2,28
		C5.6,28.5,6.4,28.5,6.9,28z"/>
	<path class="st4" d="M21.5,28l-3.2-3.2c-0.5-0.5-1.2-0.5-1.7,0l-6.4,6.4c-0.5,0.5-0.5,1.2,0,1.7l13,13c0.5,0.5,1.2,0.5,1.7,0
		l21.1-21c0.5-0.5,0.5-1.2,0-1.7L42.8,20c-0.5-0.5-1.2-0.5-1.7,0L24.9,36.2c-0.5,0.5-1.2,0.5-1.7,0L20,33c-0.5-0.5-0.5-1.2,0-1.7
		l1.5-1.5C22,29.3,22,28.5,21.5,28z"/>
</g>
<g>
	<path d="M-153.8,186.2h17.7c0.8,0,1.4,0.6,1.4,1.4v21.2c0,0.8,0.6,1.4,1.4,1.4h7.5c0.8,0,1.4-0.6,1.4-1.4v-4.1
		c0-0.8,0.6-1.4,1.4-1.4h14.3c0.8,0,1.4-0.6,1.4-1.4v-7.5c0-0.8-0.6-1.4-1.4-1.4H-123c-0.8,0-1.4-0.6-1.4-1.4v-4.1
		c0-0.8,0.6-1.4,1.4-1.4h14.3c0.8,0,1.4-0.6,1.4-1.4v-7.5c0-0.8-0.6-1.4-1.4-1.4h-45.2c-0.8,0-1.4,0.6-1.4,1.4v7.5
		C-155.2,185.6-154.5,186.2-153.8,186.2z"/>
	<path d="M-138,201.9v-7.5c0-0.8-0.6-1.4-1.4-1.4h-14.3c-0.8,0-1.4,0.6-1.4,1.4v28.1c0,0.8,0.6,1.4,1.4,1.4h45.2
		c0.8,0,1.4-0.6,1.4-1.4V215c0-0.8-0.6-1.4-1.4-1.4h-34.9c-0.8,0-1.4-0.6-1.4-1.4v-7.5c0-0.8,0.6-1.4,1.4-1.4h4
		C-138.7,203.3-138,202.7-138,201.9z"/>
</g>
</svg>
